<svg xmlns="http://www.w3.org/2000/svg" xmlns:xlink="http://www.w3.org/1999/xlink" height="384" viewBox="0 0 528 384" width="528"><svg height="128" viewBox="0 0 400 128" width="400"><path fill-rule="evenodd" clip-rule="evenodd" d="M20 0h360c11.05 0 20 8.95 20 20v88c0 11.05-8.95 20-20 20h-360c-11.05 0-20-8.95-20-20v-88c0-11.05 8.95-20 20-20z"/><path fill="#CBDC53" d="M96.36 18.28c-2.05-.01-4.13.43-6.1 1.36-4.98 2.36-7.93 7.26-8.02 12.4 2.14.1 4.33-.31 6.4-1.29 4.96-2.35 7.82-7.33 7.72-12.47zm-2.34 50.39c0-5.33 2.27-10.14 5.89-13.52l-.12-.4c-.41-1.44-.67-2.71-.67-3.45 0-8.7-7.1-15.77-15.82-15.77l-.18.01c-8.64.1-15.64 7.12-15.64 15.76 0 .73-.27 2-.68 3.45-.4 1.43-.93 2.97-1.39 4.26-1.42 4-4.1 7.4-6.52 11.17-2.41 3.76-4.52 7.92-4.52 13.32 0 11.74 7.05 21.86 17.16 26.35 1.98.88 4.02.84 5.96.66 1.94-.18 3.86-.5 5.8-.5 1.92 0 3.81.32 5.73.51 1.92.19 3.94.25 5.9-.62 9.11-3.99 15.76-12.53 17.07-22.72-9.98-.32-17.97-8.48-17.97-18.51z"/><g fill="#fff"><path d="M138.4 32.93c1.48-.22 3.25-.39 5.18-.39 3.5 0 5.99.81 7.64 2.35 1.68 1.54 2.66 3.72 2.66 6.78 0 3.08-.95 5.6-2.72 7.34-1.76 1.76-4.68 2.72-8.34 2.72-1.74 0-3.19-.08-4.42-.22v-18.58zm2.43 16.69c.62.11 1.51.14 2.46.14 5.21 0 8.04-2.91 8.04-8.01.03-4.45-2.49-7.28-7.64-7.28-1.26 0-2.21.11-2.86.25v14.9zM169.23 44.67c0 5.01-3.47 7.2-6.75 7.2-3.67 0-6.5-2.69-6.5-6.97 0-4.54 2.97-7.2 6.72-7.2 3.89-.01 6.53 2.82 6.53 6.97zm-10.76.14c0 2.97 1.71 5.21 4.12 5.21 2.35 0 4.12-2.21 4.12-5.26 0-2.3-1.15-5.21-4.06-5.21s-4.18 2.68-4.18 5.26zM173.31 38l1.79 6.89c.39 1.51.76 2.91 1.01 4.31h.08c.31-1.37.76-2.83 1.2-4.28l2.21-6.92h2.07l2.1 6.78c.5 1.62.9 3.05 1.2 4.42h.08c.22-1.37.59-2.8 1.04-4.4l1.93-6.8h2.44l-4.37 13.55h-2.24l-2.07-6.47c-.48-1.51-.87-2.86-1.2-4.45h-.06c-.34 1.62-.76 3.02-1.23 4.48l-2.18 6.44h-2.24l-4.08-13.55h2.52zM192.94 41.67c0-1.4-.03-2.55-.11-3.67h2.18l.14 2.24h.06c.67-1.29 2.24-2.55 4.48-2.55 1.88 0 4.79 1.12 4.79 5.77v8.09h-2.46v-7.81c0-2.18-.81-4-3.14-4-1.62 0-2.88 1.15-3.3 2.52-.11.31-.17.73-.17 1.15v8.15h-2.46v-9.89zM208.48 31.67h2.46v19.88h-2.46v-19.88zM227.35 44.67c0 5.01-3.47 7.2-6.75 7.2-3.67 0-6.5-2.69-6.5-6.97 0-4.54 2.97-7.2 6.72-7.2 3.9-.01 6.53 2.82 6.53 6.97zm-10.75.14c0 2.97 1.71 5.21 4.12 5.21 2.35 0 4.12-2.21 4.12-5.26 0-2.3-1.15-5.21-4.06-5.21-2.92-.01-4.18 2.68-4.18 5.26zM237.96 51.55l-.2-1.71h-.08c-.76 1.06-2.21 2.02-4.14 2.02-2.74 0-4.14-1.93-4.14-3.89 0-3.28 2.91-5.07 8.15-5.04v-.28c0-1.12-.31-3.14-3.08-3.14-1.26 0-2.58.39-3.53 1.01l-.56-1.62c1.12-.73 2.74-1.2 4.45-1.2 4.14 0 5.15 2.83 5.15 5.54v5.07c0 1.18.06 2.32.22 3.25h-2.24zm-.36-6.91c-2.69-.06-5.74.42-5.74 3.05 0 1.6 1.06 2.35 2.32 2.35 1.76 0 2.88-1.12 3.28-2.27.08-.25.14-.53.14-.78v-2.35zM255.66 31.67v16.38c0 1.2.03 2.58.11 3.5h-2.21l-.11-2.35h-.06c-.76 1.51-2.41 2.66-4.62 2.66-3.28 0-5.8-2.77-5.8-6.89-.03-4.51 2.77-7.28 6.08-7.28 2.07 0 3.47.98 4.09 2.07h.06v-8.09h2.46zm-2.46 11.85c0-.31-.03-.73-.11-1.04-.36-1.57-1.71-2.86-3.56-2.86-2.55 0-4.06 2.24-4.06 5.24 0 2.74 1.34 5.01 4 5.01 1.65 0 3.16-1.09 3.61-2.94.08-.34.11-.67.11-1.06v-2.35zM277.95 44.67c0 5.01-3.47 7.2-6.75 7.2-3.67 0-6.5-2.69-6.5-6.97 0-4.54 2.97-7.2 6.72-7.2 3.9-.01 6.53 2.82 6.53 6.97zm-10.75.14c0 2.97 1.71 5.21 4.12 5.21 2.35 0 4.12-2.21 4.12-5.26 0-2.3-1.15-5.21-4.06-5.21-2.92-.01-4.18 2.68-4.18 5.26zM281.06 41.67c0-1.4-.03-2.55-.11-3.67h2.18l.14 2.24h.06c.67-1.29 2.24-2.55 4.48-2.55 1.88 0 4.79 1.12 4.79 5.77v8.09h-2.46v-7.81c0-2.18-.81-4-3.14-4-1.62 0-2.88 1.15-3.3 2.52-.11.31-.17.73-.17 1.15v8.15h-2.46v-9.89zM305.5 34.11v3.89h3.53v1.88h-3.53v7.31c0 1.68.48 2.63 1.85 2.63.64 0 1.12-.08 1.43-.17l.11 1.85c-.48.2-1.23.34-2.18.34-1.15 0-2.07-.36-2.66-1.04-.7-.73-.95-1.93-.95-3.53v-7.39h-2.1v-1.88h2.1v-3.25l2.4-.64zM311.8 31.67h2.46v8.46h.06c.39-.7 1.01-1.32 1.76-1.74.73-.42 1.6-.7 2.52-.7 1.82 0 4.73 1.12 4.73 5.8v8.06h-2.46v-7.78c0-2.18-.81-4.03-3.14-4.03-1.6 0-2.86 1.12-3.3 2.46-.14.34-.17.7-.17 1.18v8.18h-2.46v-19.89zM328.71 45.23c.06 3.33 2.18 4.7 4.65 4.7 1.76 0 2.83-.31 3.75-.7l.42 1.76c-.87.39-2.35.84-4.51.84-4.17 0-6.66-2.74-6.66-6.83s2.41-7.31 6.36-7.31c4.42 0 5.6 3.89 5.6 6.38 0 .5-.06.9-.08 1.15h-9.53zm7.22-1.77c.03-1.57-.64-4-3.42-4-2.49 0-3.58 2.3-3.78 4h7.2zM139.82 65.53c2.02-.37 4.83-.64 8.65-.64 4.14 0 7.18.87 9.15 2.53 1.84 1.52 3.04 3.96 3.04 6.85 0 2.94-.92 5.38-2.67 7.04-2.25 2.25-5.8 3.31-9.8 3.31-1.06 0-2.02-.05-2.76-.18v11.69h-5.61v-30.6zm5.61 14.44c.69.18 1.61.23 2.76.23 4.23 0 6.81-2.07 6.81-5.7 0-3.45-2.39-5.29-6.3-5.29-1.56 0-2.67.14-3.27.28v10.48zM167 86.5c.14 4.05 3.31 5.8 6.9 5.8 2.62 0 4.51-.37 6.21-1.01l.83 3.91c-1.93.78-4.6 1.38-7.82 1.38-7.27 0-11.55-4.46-11.55-11.32 0-6.21 3.77-12.05 10.95-12.05 7.27 0 9.66 5.98 9.66 10.9 0 1.06-.09 1.89-.18 2.39h-15zm9.85-3.95c.05-2.07-.87-5.47-4.65-5.47-3.5 0-4.97 3.17-5.2 5.47h9.85zM199.34 96.12l-.37-2.48h-.14c-1.38 1.75-3.73 2.99-6.62 2.99-4.51 0-7.04-3.27-7.04-6.67 0-5.66 5.01-8.51 13.3-8.46v-.37c0-1.47-.6-3.91-4.55-3.91-2.21 0-4.51.69-6.03 1.66l-1.1-3.68c1.66-1.01 4.55-1.98 8.1-1.98 7.18 0 9.25 4.55 9.25 9.43v8.1c0 2.02.09 4 .32 5.38h-5.12zm-.73-10.95c-4-.09-7.82.78-7.82 4.19 0 2.21 1.43 3.22 3.22 3.22 2.25 0 3.91-1.47 4.42-3.08.14-.41.18-.87.18-1.24v-3.09zM210.11 80.94c0-3.04-.05-5.2-.18-7.22h4.92l.18 4.28h.18c1.1-3.17 3.73-4.78 6.12-4.78.55 0 .87.05 1.33.14v5.34c-.46-.09-.97-.18-1.66-.18-2.71 0-4.55 1.75-5.06 4.28-.09.51-.18 1.1-.18 1.75v11.59h-5.66v-15.2zM236.09 89.96c1.84 1.06 4.6 1.98 7.5 1.98 3.63 0 5.66-1.7 5.66-4.23 0-2.35-1.56-3.73-5.52-5.15-5.11-1.84-8.37-4.55-8.37-9.02 0-5.06 4.23-8.92 10.95-8.92 3.36 0 5.84.74 7.45 1.56l-1.38 4.55c-1.1-.6-3.27-1.47-6.17-1.47-3.59 0-5.15 1.93-5.15 3.73 0 2.39 1.79 3.5 5.93 5.11 5.38 2.02 8 4.74 8 9.2 0 4.97-3.77 9.29-11.78 9.29-3.27 0-6.67-.92-8.37-1.93l1.25-4.7zM266.36 67.32v6.39h5.38v4.23h-5.38v9.89c0 2.71.74 4.14 2.9 4.14.97 0 1.7-.14 2.21-.28l.09 4.33c-.83.32-2.3.55-4.09.55-2.07 0-3.82-.69-4.88-1.84-1.2-1.29-1.75-3.31-1.75-6.26v-10.52h-3.22v-4.23h3.22v-5.06l5.52-1.34zM297.32 84.71c0 8.23-5.8 11.92-11.5 11.92-6.35 0-11.23-4.37-11.23-11.55 0-7.36 4.83-11.87 11.59-11.87 6.68 0 11.14 4.69 11.14 11.5zm-16.88.23c0 4.33 2.12 7.59 5.57 7.59 3.22 0 5.47-3.17 5.47-7.68 0-3.5-1.56-7.5-5.43-7.5-4 0-5.61 3.86-5.61 7.59zM301.96 80.94c0-3.04-.05-5.2-.18-7.22h4.92l.18 4.28h.18c1.1-3.17 3.73-4.78 6.12-4.78.55 0 .87.05 1.33.14v5.34c-.46-.09-.97-.18-1.66-.18-2.71 0-4.55 1.75-5.06 4.28-.09.51-.18 1.1-.18 1.75v11.59h-5.66v-15.2zM322.34 86.5c.14 4.05 3.31 5.8 6.9 5.8 2.62 0 4.51-.37 6.21-1.01l.83 3.91c-1.93.78-4.6 1.38-7.82 1.38-7.27 0-11.55-4.46-11.55-11.32 0-6.21 3.77-12.05 10.95-12.05 7.27 0 9.66 5.98 9.66 10.9 0 1.06-.09 1.89-.18 2.39h-15zm9.85-3.95c.05-2.07-.87-5.47-4.65-5.47-3.5 0-4.97 3.17-5.2 5.47h9.85z"/></g></svg><svg height="128" viewBox="0 0 380 128" width="380" y="128"><path fill-rule="evenodd" clip-rule="evenodd" d="M20 0h340c11.05 0 20 8.95 20 20v88c0 11.05-8.95 20-20 20h-340c-11.05 0-20-8.95-20-20v-88c0-11.05 8.95-20 20-20z"/><path fill="#9C4C73" d="M33.47 85.41l-11.09-.01v.01h-.02c.63 1.58 1.43 3.06 2.38 4.44l.31.42c.2.28.41.57.62.84 2.01 2.52 4.53 4.55 7.38 5.97l.22.12c.29.14.59.27.89.4l.68.3.37.13c2.45.92 5.09 1.44 7.86 1.44 2.74 0 5.36-.51 7.78-1.41l.46-.17.57-.25c.34-.14.68-.29 1.01-.45l.06-.03c4.84-2.38 8.74-6.48 10.84-11.74h-.01l.01-.01h-30.32z"/><path fill="#A7504F" d="M63.18 75.01c1.19 0 2.19.96 2.19 2.15v.02c0 1.41-.13 2.78-.38 4.11h-43.8c-.25-1.33-.38-2.71-.38-4.11v-.02c0-1.19.99-2.15 2.19-2.15h40.18z"/><path fill="#DC9380" d="M53.5 75.01c-.32-.48-.72-.84-1.09-1.17-.66-.59-1.18-1.06-1.18-2.02 0-.97.52-1.43 1.18-2.03.74-.66 1.65-1.48 1.65-3.08 0-1.59-.92-2.41-1.65-3.07-.45-.4-.84-.75-1.04-1.23l-1.25.24-.15.03h-.02c.29.94.94 1.52 1.5 2.01.66.6 1.18 1.06 1.18 2.02s-.52 1.43-1.18 2.02c-.74.67-1.65 1.49-1.65 3.08s.91 2.41 1.65 3.08l.1.09.01.02M47.6 75.01c-.32-.48-.73-.84-1.09-1.17-.67-.59-1.18-1.06-1.18-2.02 0-.97.52-1.43 1.18-2.03.74-.66 1.65-1.48 1.65-3.08 0-1.59-.92-2.41-1.65-3.07l-.28-.25-1.12.21-.5.09v.01h-.02c.3.39.65.7.96.99.66.6 1.18 1.06 1.18 2.02s-.52 1.43-1.18 2.02c-.74.67-1.65 1.49-1.65 3.08s.91 2.41 1.65 3.08l.1.09.01.02M41.69 75.01c-.33-.48-.73-.84-1.09-1.17-.66-.59-1.18-1.06-1.18-2.02 0-.97.52-1.43 1.18-2.03.74-.66 1.65-1.48 1.65-3.08 0-1.09-.43-1.82-.94-2.38l-1.69.33.04.04c.66.6 1.18 1.06 1.18 2.02 0 .97-.52 1.43-1.18 2.02-.74.66-1.66 1.48-1.66 3.08 0 1.59.92 2.41 1.66 3.08l.1.09.01.02M35.78 75.01c-.32-.48-.72-.84-1.09-1.17-.66-.59-1.18-1.06-1.18-2.02s.52-1.43 1.18-2.03c.74-.66 1.65-1.48 1.65-3.08 0-.54-.11-.99-.28-1.38l-1.05.2-.4.07h-.02c.2.3.32.64.32 1.1 0 .97-.52 1.43-1.18 2.02-.74.67-1.65 1.49-1.65 3.08s.92 2.41 1.65 3.08l.1.09.01.02"/><path fill="#DC9380" d="M34.93 56.54c0 .95-.52 1.42-1.18 2.01-.57.51-1.24 1.11-1.52 2.09l1.91-.5h.01c.16-.18.35-.35.55-.53.72-.64 1.59-1.44 1.64-2.93l.01-.12v-.01h-1.42zM40.83 56.54c0 .95-.52 1.42-1.18 2.01l-.2.19 2.45-.64c.21-.41.34-.9.35-1.49v-.060000000000000005h-1.42z"/><path fill="#D1D9A1" d="M63.37 52.43l.87-.23v-1.6300000000000001l-37.34 1.29v2.14l26.96.93z"/><path fill="#6F9EB1" d="M64.76 58.42l-1.03-4.61-36.13 9.51.47 2.1"/><g fill="#fff"><path d="M82.66 27.68c3.48 0 5.28 1.8 5.28 1.8l-1.28 1.92s-1.52-1.36-3.78-1.36c-3.18 0-4.88 2.2-4.88 4.88 0 3.08 2.1 5.08 4.76 5.08 2.14 0 3.56-1.48 3.56-1.48v-1.66h-2.18v-2.22h4.5v7.48h-2.2v-.68c0-.3.02-.6.02-.6h-.04s-1.48 1.52-4.12 1.52c-3.74 0-6.96-2.9-6.96-7.36 0-4.12 3.1-7.32 7.32-7.32zM92.1 27.92h8.5v2.22h-5.92v3.72h4.78v2.22h-4.78v3.82h6.24v2.22h-8.82v-14.2zM107.14 30.14h-4.66v-2.22h11.9v2.22h-4.66v11.98h-2.58v-11.98zM122.32 27.92h2.58v14.2h-2.58v-14.2zM132.04 30.14h-4.66v-2.22h11.9v2.22h-4.66v11.98h-2.58v-11.98zM153.58 27.68c4.18 0 7.34 3.18 7.34 7.24 0 4.18-3.16 7.44-7.34 7.44s-7.34-3.26-7.34-7.44c0-4.06 3.16-7.24 7.34-7.24zm0 12.32c2.6 0 4.68-2.16 4.68-5.08 0-2.8-2.08-4.88-4.68-4.88s-4.68 2.08-4.68 4.88c0 2.92 2.08 5.08 4.68 5.08zM164.14 27.92h2.58l5.38 8.2c.54.82 1.18 2.2 1.18 2.2h.04s-.14-1.36-.14-2.2v-8.2h2.56v14.2h-2.56l-5.38-8.18c-.54-.82-1.18-2.2-1.18-2.2h-.04s.14 1.36.14 2.2v8.18h-2.58v-14.2z"/></g><g fill="#fff"><path d="M74.14 90.14h2.41c.78 0 1.23-.45 1.23-1.23v-32.31h6.61l15.06 22.01c1.57 2.3 3.3 5.6 3.3 5.6h.11s-.39-3.3-.39-5.6v-18.2c0-2.63 1.12-3.81 3.81-3.81h7.17v6.22h-2.41c-.78 0-1.23.45-1.23 1.23v32.31h-6.55l-15.12-21.95c-1.57-2.24-3.3-5.6-3.3-5.6h-.11s.39 3.3.39 5.6v18.14c0 2.69-1.12 3.81-3.81 3.81h-7.17v-6.22zM127.73 67.13c8.74 0 15.68 6.22 15.68 14.95 0 8.79-6.94 14.95-15.68 14.95-8.68 0-15.62-6.16-15.62-14.95 0-8.74 6.94-14.95 15.62-14.95zm0 23.85c4.65 0 8.51-3.58 8.51-8.9 0-5.26-3.86-8.9-8.51-8.9-4.59 0-8.46 3.64-8.46 8.9 0 5.32 3.87 8.9 8.46 8.9zM160.38 67.13c8.74 0 15.68 6.22 15.68 14.95 0 8.79-6.94 14.95-15.68 14.95-8.68 0-15.62-6.16-15.62-14.95-.01-8.74 6.94-14.95 15.62-14.95zm0 23.85c4.65 0 8.51-3.58 8.51-8.9 0-5.26-3.86-8.9-8.51-8.9-4.59 0-8.46 3.64-8.46 8.9 0 5.32 3.86 8.9 8.46 8.9zM190.39 67.13c6.22 0 8.23 3.47 8.23 3.47h.11s-.06-.73-.06-1.68v-5.04c0-.84-.45-1.23-1.23-1.23h-2.24v-6.05h6.78c2.63 0 3.81 1.18 3.81 3.81v28.73c0 .78.45 1.23 1.23 1.23h2.18v5.99h-6.55c-2.58 0-3.53-1.23-3.53-2.91v-1.06h-.11s-2.35 4.65-8.9 4.65c-7.73 0-12.71-6.1-12.71-14.95 0-9.08 5.43-14.96 12.99-14.96zm8.46 14.89c0-4.42-2.3-8.79-7.06-8.79-3.92 0-7.17 3.19-7.17 8.85 0 5.43 2.86 8.96 7.06 8.96 3.7 0 7.17-2.69 7.17-9.02zM212.68 63.88c0-.84-.45-1.23-1.23-1.23h-2.24v-6.05h6.78c2.63 0 3.81 1.18 3.81 3.81v28.73c0 .78.45 1.23 1.23 1.23h2.18v5.99h-6.72c-2.69 0-3.81-1.12-3.81-3.81v-28.67zM238.55 67.13c8.18 0 12.66 5.99 12.66 13.55 0 .84-.17 2.63-.17 2.63h-19.71c.56 5.04 4.26 7.67 8.57 7.67 4.59 0 8.01-3.19 8.01-3.19l2.97 4.93s-4.37 4.31-11.48 4.31c-9.46 0-15.34-6.83-15.34-14.95-.01-8.79 5.92-14.95 14.49-14.95zm5.38 11.25c-.11-3.42-2.46-5.77-5.38-5.77-3.64 0-6.22 2.18-7 5.77h12.38zM264.44 68.36h2.35v3.36c0 1.29-.17 2.24-.17 2.24h.11s2.3-6.27 10.08-6.27c7.5 0 12.1 5.99 12.1 14.67 0 8.9-5.21 14.67-12.43 14.67-7.28 0-9.8-6.33-9.8-6.33h-.11s.22 1.01.22 2.46v14.39h-2.35v-39.19zm12.04 26.38c5.49 0 9.97-4.54 9.97-12.38 0-7.56-4.03-12.38-9.74-12.38-5.15 0-9.97 3.64-9.97 12.43 0 6.22 3.47 12.33 9.74 12.33zM296.59 57.16h2.35v32.82c0 3.92 2.02 4.37 3.3 4.37.45 0 .84-.06.84-.06v2.18s-.5.11-1.01.11c-1.62 0-5.49-.62-5.49-5.88v-33.54zM324.81 79.28h1.85v-.95c0-6.22-3.19-8.34-7.67-8.34-4.87 0-8.01 2.69-8.01 2.69l-1.34-1.9s3.36-3.08 9.46-3.08c6.44 0 9.91 3.58 9.91 10.58v18.09h-2.35v-3.7c0-1.51.22-2.52.22-2.52h-.11c.06 0-2.52 6.89-9.8 6.89-4.54 0-9.52-2.52-9.52-8.12 0-9.53 12.38-9.64 17.36-9.64zm-7.73 15.57c6.1 0 9.58-6.33 9.58-11.87v-1.51h-1.79c-4.76 0-14.95 0-14.95 7.28 0 2.96 2.4 6.1 7.16 6.1zM335.06 104.54s1.57 1.34 3.47 1.34c2.69 0 4.37-2.41 5.49-5.04l2.02-4.65-11.59-27.83h2.52l9.24 22.34c.56 1.34 1.01 2.63 1.01 2.63h.11s.39-1.29.95-2.63l9.24-22.34h2.52l-14.39 34.55c-1.23 2.91-3.58 5.21-7.11 5.21-2.69 0-4.54-1.57-4.54-1.57l1.06-2.01z"/></g></svg><svg height="128" viewBox="0 0 128 128" width="128" y="256"><circle fill="#F8B51C" cx="64" cy="64" r="64"/><path opacity=".1" fill="#241C1D" d="M64 103.28l-7.3 4.82 22.36 18.1c28.08-6.78 48.94-32.04 48.94-62.2 0-1.11-.03-2.21-.08-3.3l-50.85-38.53-13.07 81.11z"/><path fill="#FDF8B7" d="M66.77 102.43l2.18-27.32-5.01.05h-5.04l2.45 27.3s-6.11 2.1-4.66 5.64c1.45 3.54 6.91 2.26 7.39 0 .5 2.25 5.98 3.49 7.39-.08 1.43-3.56-4.7-5.59-4.7-5.59z"/><path fill="#CE9201" d="M64 18.76c-13.61-.09-21.58 9.14-21.53 24.44.02 7.15 6.82 13.44 10.74 17.33 3.44 3.42 4.3 6.3 5.4 11.45.4 1.86.37 7.2 1 10.3h8.79c.63-3.11.6-8.44 1-10.3 1.1-5.15 3.63-9.06 7.07-12.48 3.92-3.89 9.05-9.16 9.07-16.3.04-15.3-6.49-24.53-21.54-24.44z"/><path opacity=".2" fill="#241C1D" d="M64 18.76c-13.61-.09-21.58 9.14-21.53 24.44.02 7.15 6.82 13.44 10.74 17.33 3.44 3.42 4.3 6.3 5.4 11.45.15.68.24 1.84.32 3.18h-.02l.06.7c.12 1.92.24 4.1.52 5.81l1.87 20.79s-6.11 2.1-4.66 5.64c1.39 3.4 6.47 2.35 7.3.26v-89.6z"/></svg><svg height="128" viewBox="0 0 128 128" width="128" x="128" y="256"><circle fill="#F8B51C" cx="64" cy="64" r="64"/><path opacity=".1" fill="#241C1D" d="M68.09 25.83l-19.09 60.34-12.34 10.52 39.73 30.1c27.01-5.3 47.92-27.59 51.16-55.29l-59.46-45.67z"/><path fill="#FDF8B7" d="M98 70.44c1.32-8.35-7.08-31.3-34.32-31.54-27.3.24-33.91 21.35-34.36 31.54h68.68z"/><path fill="#6A3B0D" d="M37.52 63.58c4.1 1.29 6.29-1.88 9.54-3.53 3.85-1.88 4.66-.24 7.3 2.82 2.43 2.58 5.07 2.98 7.5.23 2.27-2.56 1.83-6.35 5.68-7.05 3.45-.47 5.88 3.29 8.72 4.94 4.05 2.35 14.74 4.07 15.28-5.01.13-2.2-.53-4.25-1.73-6.12-5.15-6.12-13.33-10.98-26.16-11.09-17.21.15-26.19 8.6-30.59 17.38-.01 3.27.01 6.03 4.46 7.43z"/><path fill="#57AC70" d="M64 69.13h-36.78l9.44 27.56h54.68l9.44-27.56z"/><circle fill="#fff" cx="40.14" cy="77.03" r="4.3"/><circle fill="#E60624" cx="58.51" cy="85.06" r="3.73"/><circle fill="#331E31" cx="67.48" cy="76.88" r="2.35"/><circle fill="#B2DAB6" cx="85.73" cy="79.06" r="4.53"/><circle fill="#fff" cx="77.24" cy="90.81" r="2.02"/><path fill="#331E31" d="M44.44 90.17c0 1.19-.96 2.15-2.15 2.15s-2.15-.96-2.15-2.15.96-2.15 2.15-2.15 2.15.96 2.15 2.15z"/><path opacity=".2" fill="#241C1D" d="M64 38.91l-.35-.01c-17.21.15-26.19 8.6-30.59 17.37v.17c-2.28 4.56-3.33 9.19-3.65 12.8h-2.19l9.44 27.57h27.34v-57.9z"/><circle fill="#E73121" cx="64.09" cy="33.37" r="8.35"/><path opacity=".2" fill="#241C1D" d="M64.09 25.02c-.41 0-.81.04-1.2.1 4.04.58 7.15 4.05 7.15 8.25s-3.11 7.67-7.15 8.25c.39.06.79.1 1.2.1 4.61 0 8.35-3.74 8.35-8.35 0-4.61-3.74-8.35-8.35-8.35z"/><ellipse fill="#fff" cx="59.75" cy="30.21" rx="1.18" ry="1.24"/></svg><svg height="128" viewBox="0 0 128 128" width="128" x="256" y="256"><circle fill="#331E31" cx="64" cy="64" r="64"/><path opacity=".4" fill="#060001" d="M128 69.21l-30.12-26.34-38.55 27.83-23.18 29.12 32.96 28.18c31.4-2.38 56.46-27.4 58.89-58.79z"/><path fill="#FDF8B7" d="M61.35 22.01c-7.13-1.87-14.43-1.44-20.82 2.45-6.87 4.19-11.75 11.99-10.07 20.08.75 3.62 2.68 6.91 3.59 10.5 1.22 4.81-1.35 9.97-3.21 14.27-3.46 7.99-4.7 15.32-.63 23.39 6.84 13.58 28.07 18.05 41.3 12.35 6.36-2.74 10.69-7.93 13.99-13.87 1.13-2.04 2.08-4.18 3.27-6.18 1.85-3.1 5.04-4.82 8.11-6.5 2.96-1.62 6.09-3.31 8.17-6.07 2.67-3.53 2.96-7.74 2.56-12.03-.71-7.61-4.92-13.82-10.9-18.33-4.53-3.42-9.88-5.24-15.08-7.33-2.78-1.12-5.33-3.94-7.75-5.7-3.84-2.79-7.96-5.61-12.53-7.03M44.2 26.79"/><path opacity=".1" fill="#241C1D" d="M63.68 22.68c-.77-.32-1.54-.62-2.33-.87-7.13-1.87-14.43-1.44-20.82 2.45-6.87 4.18-11.75 11.99-10.07 20.08.75 3.62 2.68 6.91 3.59 10.5 1.22 4.81-1.35 9.97-3.21 14.27-3.46 7.99-4.7 15.32-.63 23.39 5.6 11.13 20.86 16.13 33.47 14.45v-84.27z"/><circle fill="#F8B51C" cx="63.68" cy="62.22" r="17.61"/><ellipse fill="#fff" cx="56.1" cy="56.11" rx="3.34" ry="3.28"/><path opacity=".1" fill="#241C1D" d="M63.68 76.99c-9.25 0-16.82-7.13-17.55-16.19-.04.47-.06.94-.06 1.41 0 9.72 7.88 17.61 17.61 17.61 9.72 0 17.61-7.88 17.61-17.61 0-.48-.02-.95-.06-1.41-.72 9.07-8.3 16.19-17.55 16.19z"/></svg><svg height="128" viewBox="0 0 128 128" width="128" x="400"><ellipse fill="#FDF8B7" cx="63.92" cy="64" rx="63.92" ry="64"/><path opacity=".1" fill="#241C1D" d="M127.96 62.43l-37.75-27.47-50.75 4.37-9.9 55.9 43.51 32.12c31.05-4.37 54.93-31.06 54.93-63.35 0-.53-.03-1.05-.04-1.57z"/><path fill="#E60624" d="M27.29 75.76h72.72v8.22h-72.72z"/><path fill="#57AC70" d="M26.18 53.97h75.14v4.13h-75.14z"/><path fill="#6A3B0D" d="M105.53 66.93c0 4.87-3.95 8.83-8.81 8.83h-65.26c-4.87 0-8.81-3.95-8.81-8.83 0-4.87 3.95-8.83 8.81-8.83h65.26c4.86.01 8.81 3.96 8.81 8.83z"/><path opacity=".3" fill="#241C1D" d="M96.71 71.63h-65.25c-4.16 0-7.64-2.89-8.56-6.77-.16.66-.25 1.35-.25 2.06 0 4.87 3.95 8.83 8.81 8.83h65.26c4.87 0 8.81-3.95 8.81-8.83 0-.71-.09-1.4-.25-2.06-.93 3.88-4.41 6.77-8.57 6.77z"/><path fill="#C68C08" d="M105.53 53.97c-6.89-16.09-22.85-27.37-41.45-27.37-18.59 0-34.56 11.28-41.44 27.38h82.89z"/><path opacity=".1" fill="#241C1D" d="M25 49.27c-.87 1.52-1.66 3.09-2.35 4.71h82.88c-.69-1.62-1.48-3.19-2.35-4.71h-78.18z"/><path fill="#C2890B" d="M98.6 95.23c2.82-3.37 3.32-6.55 5-11.25h-78.88c1.03 4.35 2.02 7.88 4.85 11.25h69.03z"/><path fill="#B88210" d="M49.45 36.37l-.09-.03c.16.03.32.07.47.12l.36.12-.12-.06.2.1c.94.46 2.07.27 2.63-.69.5-.85.25-2.18-.69-2.64-.88-.43-1.79-.75-2.77-.78-1.05-.03-1.93.9-1.93 1.93.02 1.08.89 1.9 1.94 1.93zM64.47 30.85c-.01.94-.18-1.16 1.16-1.34-1.04.14-1.59 1.46-1.34 2.37.13.48.45.9.88 1.15.49.29.94.27 1.48.19 1.13-.16 1.66-1.36 1.67-2.37.01-1.05-.88-1.93-1.92-1.93-1.06 0-1.93.88-1.93 1.93zM78.71 38.69l.33.01-.23-.03.1.02c-.21-.06-.38-.16-.53-.31.8.68 1.94.79 2.72 0 .7-.7.8-2.04 0-2.73-.7-.6-1.47-.82-2.39-.82-1.05 0-1.92.88-1.92 1.93s.88 1.92 1.92 1.93zM70.64 38.61l-.18.31h-.02l-.28.26c.41-.35.01-.04-.12.03-.93.49-1.21 1.76-.69 2.64.55.93 1.71 1.19 2.63.69.81-.43 1.54-1.16 1.98-1.98.49-.93.24-2.09-.69-2.64-.88-.52-2.14-.23-2.63.69zM40.73 41.25c2.48 0 2.48-3.85 0-3.85-2.49 0-2.49 3.85 0 3.85zM58.18 42.28c2.48 0 2.48-3.85 0-3.85s-2.48 3.85 0 3.85zM88.73 43.31c2.48 0 2.48-3.86 0-3.86-2.49.01-2.49 3.86 0 3.86z"/><path opacity=".2" fill="#241C1D" d="M64.16 26.6c-17.61 0-32.86 10.12-40.27 24.87l-.14.28c-.36.73-.71 1.47-1.03 2.23h3.54v4.13h5.27c-4.16 0-7.63 2.89-8.56 6.76l-.01.04c-.07.28-.12.57-.16.86l-.02.15c-.04.31-.06.63-.06.96v.060000000000000005c0 4.87 3.95 8.83 8.81 8.83h-4.17v8.22h-2.57c1.03 4.35 2.03 7.88 4.85 11.25h34.52v-68.64z"/></svg><svg height="128" viewBox="0 0 128 128" width="128" x="400" y="128"><circle fill="#E60624" cx="64" cy="64" r="64"/><path opacity=".25" fill="#241C1D" d="M64 103.28l.6 7.02 18.58 14.77c25.98-8.15 44.82-32.41 44.82-61.07 0-2.68-.18-5.32-.5-7.91l-23.01-19.21-40.49 66.4z"/><path fill-rule="evenodd" clip-rule="evenodd" fill="#E5A509" d="M64.61 110.29l38.19-70.3s-9.78-12.05-38.2-11.84c-28.42-.2-38.2 11.84-38.2 11.84l38.21 70.3z"/><path fill="#F8B51C" d="M106.94 39.58c-.36-.56-9.22-13.71-42.25-14.51l-.08.01-.08-.01c-33.03.8-41.89 13.95-42.25 14.51-.92 1.43-.51 3.34.92 4.26.52.33 1.1.49 1.67.49 1.01 0 2.01-.5 2.59-1.41.07-.11 7.88-10.96 37.15-11.69 29.08.73 36.99 11.48 37.17 11.72.59.89 1.57 1.38 2.57 1.38.57 0 1.15-.16 1.67-.49 1.43-.92 1.84-2.83.92-4.26z"/><path fill-rule="evenodd" clip-rule="evenodd" fill="#FDF8B7" d="M73.18 50.63c-4.88 1.29-6.94 4.63-12.34 2.83-3.86-1.29-7.2-5.4-11.57-5.4-6.76 0-10.56 5.55-12.5 11.15l27.75 51.07v.01-.01l28.92-53.23c-7.93-1.29-10.76-9.24-20.26-6.42z"/><circle fill-rule="evenodd" clip-rule="evenodd" fill="#AA1018" cx="54.5" cy="65.24" r="7.98"/><ellipse fill="#fff" cx="52.24" cy="62.99" rx="1.64" ry="1.59"/><ellipse fill="#fff" cx="57.24" cy="63.47" rx="1.14" ry="1.11"/><ellipse fill="#fff" cx="54.5" cy="67.38" rx=".95" ry=".92"/><circle fill="#57AC70" cx="74.28" cy="62.99" r="4.63"/><circle fill="#B2DAB6" cx="67.89" cy="82.77" r="4.84"/><circle fill-rule="evenodd" clip-rule="evenodd" fill="#331E31" cx="70.43" cy="72.63" r="2.31"/><circle fill-rule="evenodd" clip-rule="evenodd" fill="#331E31" cx="85.46" cy="62.36" r="1.41"/><path fill-rule="evenodd" clip-rule="evenodd" fill="#E60624" d="M71.82 92.71c-2.04 0-3.7 1.66-3.7 3.7 0 1.56.96 2.88 2.32 3.43l3.51-6.46c-.61-.42-1.34-.67-2.13-.67z"/><path fill-rule="evenodd" clip-rule="evenodd" fill="#331E31" d="M54.5 85.04c0-2.52-2.05-4.57-4.57-4.57-.6 0-1.17.12-1.69.33l4.33 7.96c1.17-.82 1.93-2.18 1.93-3.72z"/><ellipse fill-rule="evenodd" clip-rule="evenodd" fill="#331E31" cx="48.02" cy="53.21" rx="1.5" ry="1.54"/><path opacity=".2" fill-rule="evenodd" clip-rule="evenodd" fill="#241C1D" d="M64.61 110.23v-85.23h-.08c-33.03.81-41.89 13.95-42.25 14.51-.92 1.43-.51 3.34.92 4.26.52.33 1.1.49 1.67.49 1.01 0 2-.5 2.59-1.41l.33-.4 9.02 16.61-.03.08 11.69 21.51-.22.08 4.33 7.96.18-.15 11.78 21.67v.01-.01l.03-.06.04.08z"/></svg></svg>