<?xml version="1.0" encoding="UTF-8"?><!DOCTYPE svg PUBLIC "-//W3C//DTD SVG 1.1//EN" "http://www.w3.org/Graphics/SVG/1.1/DTD/svg11.dtd"><svg xmlns="http://www.w3.org/2000/svg" xmlns:xlink="http://www.w3.org/1999/xlink" height="424" viewBox="0 0 558 424" width="558"><svg height="128" viewBox="0 0 400 128" width="400" x="10" y="10"><path d="M25 5h350c11.05 0 20 8.95 20 20v78c0 11.05-8.95 20-20 20h-350c-11.05 0-20-8.95-20-20v-78c0-11.05 8.95-20 20-20z"/><path fill="#CBDC53" d="M96.36 18.28c-2.05-.01-4.13.43-6.1 1.36-4.98 2.36-7.93 7.26-8.02 12.4 2.14.1 4.33-.31 6.4-1.29 4.96-2.35 7.82-7.33 7.72-12.47zm-2.34 50.39c0-5.33 2.27-10.14 5.89-13.52l-.12-.4c-.41-1.44-.67-2.71-.67-3.45 0-8.7-7.1-15.77-15.82-15.77l-.18.01c-8.64.1-15.64 7.12-15.64 15.76 0 .73-.27 2-.68 3.45-.4 1.43-.93 2.97-1.39 4.26-1.42 4-4.1 7.4-6.52 11.17-2.41 3.76-4.52 7.92-4.52 13.32 0 11.74 7.05 21.86 17.16 26.35 1.98.88 4.02.84 5.96.66 1.94-.18 3.86-.5 5.8-.5 1.92 0 3.81.32 5.73.51 1.92.19 3.94.25 5.9-.62 9.11-3.99 15.76-12.53 17.07-22.72-9.98-.32-17.97-8.48-17.97-18.51z"/><path fill="#fff" d="M138.4 32.93c1.48-.22 3.25-.39 5.18-.39 3.5 0 5.99.81 7.64 2.35 1.68 1.54 2.66 3.72 2.66 6.78 0 3.08-.95 5.6-2.72 7.34-1.76 1.76-4.68 2.72-8.34 2.72-1.74 0-3.19-.08-4.42-.22v-18.58zm2.43 16.69c.62.11 1.51.14 2.46.14 5.21 0 8.04-2.91 8.04-8.01.03-4.45-2.49-7.28-7.64-7.28-1.26 0-2.21.11-2.86.25v14.9zM169.23 44.67c0 5.01-3.47 7.2-6.75 7.2-3.67 0-6.5-2.69-6.5-6.97 0-4.54 2.97-7.2 6.72-7.2 3.89-.01 6.53 2.82 6.53 6.97zm-10.76.14c0 2.97 1.71 5.21 4.12 5.21 2.35 0 4.12-2.21 4.12-5.26 0-2.3-1.15-5.21-4.06-5.21s-4.18 2.68-4.18 5.26zM173.31 38l1.79 6.89c.39 1.51.76 2.91 1.01 4.31h.08c.31-1.37.76-2.83 1.2-4.28l2.21-6.92h2.07l2.1 6.78c.5 1.62.9 3.05 1.2 4.42h.08c.22-1.37.59-2.8 1.04-4.4l1.93-6.8h2.44l-4.37 13.55h-2.24l-2.07-6.47c-.48-1.51-.87-2.86-1.2-4.45h-.06c-.34 1.62-.76 3.02-1.23 4.48l-2.18 6.44h-2.24l-4.08-13.55h2.52zM192.94 41.67c0-1.4-.03-2.55-.11-3.67h2.18l.14 2.24h.06c.67-1.29 2.24-2.55 4.48-2.55 1.88 0 4.79 1.12 4.79 5.77v8.09h-2.46v-7.81c0-2.18-.81-4-3.14-4-1.62 0-2.88 1.15-3.3 2.52-.11.31-.17.73-.17 1.15v8.15h-2.46v-9.89zM208.48 31.67h2.46v19.88h-2.46v-19.88zM227.35 44.67c0 5.01-3.47 7.2-6.75 7.2-3.67 0-6.5-2.69-6.5-6.97 0-4.54 2.97-7.2 6.72-7.2 3.9-.01 6.53 2.82 6.53 6.97zm-10.75.14c0 2.97 1.71 5.21 4.12 5.21 2.35 0 4.12-2.21 4.12-5.26 0-2.3-1.15-5.21-4.06-5.21-2.92-.01-4.18 2.68-4.18 5.26zM237.96 51.55l-.2-1.71h-.08c-.76 1.06-2.21 2.02-4.14 2.02-2.74 0-4.14-1.93-4.14-3.89 0-3.28 2.91-5.07 8.15-5.04v-.28c0-1.12-.31-3.14-3.08-3.14-1.26 0-2.58.39-3.53 1.01l-.56-1.62c1.12-.73 2.74-1.2 4.45-1.2 4.14 0 5.15 2.83 5.15 5.54v5.07c0 1.18.06 2.32.22 3.25h-2.24zm-.36-6.91c-2.69-.06-5.74.42-5.74 3.05 0 1.6 1.06 2.35 2.32 2.35 1.76 0 2.88-1.12 3.28-2.27.08-.25.14-.53.14-.78v-2.35zM255.66 31.67v16.38c0 1.2.03 2.58.11 3.5h-2.21l-.11-2.35h-.06c-.76 1.51-2.41 2.66-4.62 2.66-3.28 0-5.8-2.77-5.8-6.89-.03-4.51 2.77-7.28 6.08-7.28 2.07 0 3.47.98 4.09 2.07h.06v-8.09h2.46zm-2.46 11.85c0-.31-.03-.73-.11-1.04-.36-1.57-1.71-2.86-3.56-2.86-2.55 0-4.06 2.24-4.06 5.24 0 2.74 1.34 5.01 4 5.01 1.65 0 3.16-1.09 3.61-2.94.08-.34.11-.67.11-1.06v-2.35zM277.95 44.67c0 5.01-3.47 7.2-6.75 7.2-3.67 0-6.5-2.69-6.5-6.97 0-4.54 2.97-7.2 6.72-7.2 3.9-.01 6.53 2.82 6.53 6.97zm-10.75.14c0 2.97 1.71 5.21 4.12 5.21 2.35 0 4.12-2.21 4.12-5.26 0-2.3-1.15-5.21-4.06-5.21-2.92-.01-4.18 2.68-4.18 5.26zM281.06 41.67c0-1.4-.03-2.55-.11-3.67h2.18l.14 2.24h.06c.67-1.29 2.24-2.55 4.48-2.55 1.88 0 4.79 1.12 4.79 5.77v8.09h-2.46v-7.81c0-2.18-.81-4-3.14-4-1.62 0-2.88 1.15-3.3 2.52-.11.31-.17.73-.17 1.15v8.15h-2.46v-9.89zM305.5 34.11v3.89h3.53v1.88h-3.53v7.31c0 1.68.48 2.63 1.85 2.63.64 0 1.12-.08 1.43-.17l.11 1.85c-.48.2-1.23.34-2.18.34-1.15 0-2.07-.36-2.66-1.04-.7-.73-.95-1.93-.95-3.53v-7.39h-2.1v-1.88h2.1v-3.25l2.4-.64zM311.8 31.67h2.46v8.46h.06c.39-.7 1.01-1.32 1.76-1.74.73-.42 1.6-.7 2.52-.7 1.82 0 4.73 1.12 4.73 5.8v8.06h-2.46v-7.78c0-2.18-.81-4.03-3.14-4.03-1.6 0-2.86 1.12-3.3 2.46-.14.34-.17.7-.17 1.18v8.18h-2.46v-19.89zM328.71 45.23c.06 3.33 2.18 4.7 4.65 4.7 1.76 0 2.83-.31 3.75-.7l.42 1.76c-.87.39-2.35.84-4.51.84-4.17 0-6.66-2.74-6.66-6.83s2.41-7.31 6.36-7.31c4.42 0 5.6 3.89 5.6 6.38 0 .5-.06.9-.08 1.15h-9.53zm7.22-1.77c.03-1.57-.64-4-3.42-4-2.49 0-3.58 2.3-3.78 4h7.2zM139.82 65.53c2.02-.37 4.83-.64 8.65-.64 4.14 0 7.18.87 9.15 2.53 1.84 1.52 3.04 3.96 3.04 6.85 0 2.94-.92 5.38-2.67 7.04-2.25 2.25-5.8 3.31-9.8 3.31-1.06 0-2.02-.05-2.76-.18v11.69h-5.61v-30.6zm5.61 14.44c.69.18 1.61.23 2.76.23 4.23 0 6.81-2.07 6.81-5.7 0-3.45-2.39-5.29-6.3-5.29-1.56 0-2.67.14-3.27.28v10.48zM167 86.5c.14 4.05 3.31 5.8 6.9 5.8 2.62 0 4.51-.37 6.21-1.01l.83 3.91c-1.93.78-4.6 1.38-7.82 1.38-7.27 0-11.55-4.46-11.55-11.32 0-6.21 3.77-12.05 10.95-12.05 7.27 0 9.66 5.98 9.66 10.9 0 1.06-.09 1.89-.18 2.39h-15zm9.85-3.95c.05-2.07-.87-5.47-4.65-5.47-3.5 0-4.97 3.17-5.2 5.47h9.85zM199.34 96.12l-.37-2.48h-.14c-1.38 1.75-3.73 2.99-6.62 2.99-4.51 0-7.04-3.27-7.04-6.67 0-5.66 5.01-8.51 13.3-8.46v-.37c0-1.47-.6-3.91-4.55-3.91-2.21 0-4.51.69-6.03 1.66l-1.1-3.68c1.66-1.01 4.55-1.98 8.1-1.98 7.18 0 9.25 4.55 9.25 9.43v8.1c0 2.02.09 4 .32 5.38h-5.12zm-.73-10.95c-4-.09-7.82.78-7.82 4.19 0 2.21 1.43 3.22 3.22 3.22 2.25 0 3.91-1.47 4.42-3.08.14-.41.18-.87.18-1.24v-3.09zM210.11 80.94c0-3.04-.05-5.2-.18-7.22h4.92l.18 4.28h.18c1.1-3.17 3.73-4.78 6.12-4.78.55 0 .87.05 1.33.14v5.34c-.46-.09-.97-.18-1.66-.18-2.71 0-4.55 1.75-5.06 4.28-.09.51-.18 1.1-.18 1.75v11.59h-5.66v-15.2zM236.09 89.96c1.84 1.06 4.6 1.98 7.5 1.98 3.63 0 5.66-1.7 5.66-4.23 0-2.35-1.56-3.73-5.52-5.15-5.11-1.84-8.37-4.55-8.37-9.02 0-5.06 4.23-8.92 10.95-8.92 3.36 0 5.84.74 7.45 1.56l-1.38 4.55c-1.1-.6-3.27-1.47-6.17-1.47-3.59 0-5.15 1.93-5.15 3.73 0 2.39 1.79 3.5 5.93 5.11 5.38 2.02 8 4.74 8 9.2 0 4.97-3.77 9.29-11.78 9.29-3.27 0-6.67-.92-8.37-1.93l1.25-4.7zM266.36 67.32v6.39h5.38v4.23h-5.38v9.89c0 2.71.74 4.14 2.9 4.14.97 0 1.7-.14 2.21-.28l.09 4.33c-.83.32-2.3.55-4.09.55-2.07 0-3.82-.69-4.88-1.84-1.2-1.29-1.75-3.31-1.75-6.26v-10.52h-3.22v-4.23h3.22v-5.06l5.52-1.34zM297.32 84.71c0 8.23-5.8 11.92-11.5 11.92-6.35 0-11.23-4.37-11.23-11.55 0-7.36 4.83-11.87 11.59-11.87 6.68 0 11.14 4.69 11.14 11.5zm-16.88.23c0 4.33 2.12 7.59 5.57 7.59 3.22 0 5.47-3.17 5.47-7.68 0-3.5-1.56-7.5-5.43-7.5-4 0-5.61 3.86-5.61 7.59zM301.96 80.94c0-3.04-.05-5.2-.18-7.22h4.92l.18 4.28h.18c1.1-3.17 3.73-4.78 6.12-4.78.55 0 .87.05 1.33.14v5.34c-.46-.09-.97-.18-1.66-.18-2.71 0-4.55 1.75-5.06 4.28-.09.51-.18 1.1-.18 1.75v11.59h-5.66v-15.2zM322.34 86.5c.14 4.05 3.31 5.8 6.9 5.8 2.62 0 4.51-.37 6.21-1.01l.83 3.91c-1.93.78-4.6 1.38-7.82 1.38-7.27 0-11.55-4.46-11.55-11.32 0-6.21 3.77-12.05 10.95-12.05 7.27 0 9.66 5.98 9.66 10.9 0 1.06-.09 1.89-.18 2.39h-15zm9.85-3.95c.05-2.07-.87-5.47-4.65-5.47-3.5 0-4.97 3.17-5.2 5.47h9.85z"/></svg><svg height="128" viewBox="0 0 380 128" width="380" x="10" y="148"><path d="M25 5h330c11.05 0 20 8.95 20 20v78c0 11.05-8.95 20-20 20h-330c-11.05 0-20-8.95-20-20v-78c0-11.05 8.95-20 20-20z"/><path fill="#9C4C73" d="M33.47 85.41l-11.09-.01v.01h-.02c.63 1.58 1.43 3.06 2.38 4.44l.31.42c.2.28.41.57.62.84 2.01 2.52 4.53 4.55 7.38 5.97l.22.12c.29.14.59.27.89.4l.68.3.37.13c2.45.92 5.09 1.44 7.86 1.44 2.74 0 5.36-.51 7.78-1.41l.46-.17.57-.25c.34-.14.68-.29 1.01-.45l.06-.03c4.84-2.38 8.74-6.48 10.84-11.74h-.01l.01-.01h-30.32z"/><path fill="#A7504F" d="M63.18 75.01c1.19 0 2.19.96 2.19 2.15v.02c0 1.41-.13 2.78-.38 4.11h-43.8c-.25-1.33-.38-2.71-.38-4.11v-.02c0-1.19.99-2.15 2.19-2.15h40.18z"/><path fill="#DC9380" d="M53.5 75.01c-.32-.48-.72-.84-1.09-1.17-.66-.59-1.18-1.06-1.18-2.02 0-.97.52-1.43 1.18-2.03.74-.66 1.65-1.48 1.65-3.08 0-1.59-.92-2.41-1.65-3.07-.45-.4-.84-.75-1.04-1.23l-1.25.24-.15.03h-.02c.29.94.94 1.52 1.5 2.01.66.6 1.18 1.06 1.18 2.02s-.52 1.43-1.18 2.02c-.74.67-1.65 1.49-1.65 3.08s.91 2.41 1.65 3.08l.1.09.01.02M47.6 75.01c-.32-.48-.73-.84-1.09-1.17-.67-.59-1.18-1.06-1.18-2.02 0-.97.52-1.43 1.18-2.03.74-.66 1.65-1.48 1.65-3.08 0-1.59-.92-2.41-1.65-3.07l-.28-.25-1.12.21-.5.09v.01h-.02c.3.39.65.7.96.99.66.6 1.18 1.06 1.18 2.02s-.52 1.43-1.18 2.02c-.74.67-1.65 1.49-1.65 3.08s.91 2.41 1.65 3.08l.1.09.01.02M41.69 75.01c-.33-.48-.73-.84-1.09-1.17-.66-.59-1.18-1.06-1.18-2.02 0-.97.52-1.43 1.18-2.03.74-.66 1.65-1.48 1.65-3.08 0-1.09-.43-1.82-.94-2.38l-1.69.33.04.04c.66.6 1.18 1.06 1.18 2.02 0 .97-.52 1.43-1.18 2.02-.74.66-1.66 1.48-1.66 3.08 0 1.59.92 2.41 1.66 3.08l.1.09.01.02M35.78 75.01c-.32-.48-.72-.84-1.09-1.17-.66-.59-1.18-1.06-1.18-2.02s.52-1.43 1.18-2.03c.74-.66 1.65-1.48 1.65-3.08 0-.54-.11-.99-.28-1.38l-1.05.2-.4.07h-.02c.2.3.32.64.32 1.1 0 .97-.52 1.43-1.18 2.02-.74.67-1.65 1.49-1.65 3.08s.92 2.41 1.65 3.08l.1.09.01.02"/><path fill="#DC9380" d="M34.93 56.54c0 .95-.52 1.42-1.18 2.01-.57.51-1.24 1.11-1.52 2.09l1.91-.5h.01c.16-.18.35-.35.55-.53.72-.64 1.59-1.44 1.64-2.93l.01-.12v-.01h-1.42zM40.83 56.54c0 .95-.52 1.42-1.18 2.01l-.2.19 2.45-.64c.21-.41.34-.9.35-1.49v-.06h-1.42z"/><path fill="#D1D9A1" d="M63.37 52.43l.87-.23v-1.63l-37.34 1.29v2.14l26.96.93z"/><path fill="#6F9EB1" d="M64.76 58.42l-1.03-4.61-36.13 9.51.47 2.1"/><path fill="#fff" d="M82.66 27.68c3.48 0 5.28 1.8 5.28 1.8l-1.28 1.92s-1.52-1.36-3.78-1.36c-3.18 0-4.88 2.2-4.88 4.88 0 3.08 2.1 5.08 4.76 5.08 2.14 0 3.56-1.48 3.56-1.48v-1.66h-2.18v-2.22h4.5v7.48h-2.2v-.68c0-.3.02-.6.02-.6h-.04s-1.48 1.52-4.12 1.52c-3.74 0-6.96-2.9-6.96-7.36 0-4.12 3.1-7.32 7.32-7.32zM92.1 27.92h8.5v2.22h-5.92v3.72h4.78v2.22h-4.78v3.82h6.24v2.22h-8.82v-14.2zM107.14 30.14h-4.66v-2.22h11.9v2.22h-4.66v11.98h-2.58v-11.98zM122.32 27.92h2.58v14.2h-2.58v-14.2zM132.04 30.14h-4.66v-2.22h11.9v2.22h-4.66v11.98h-2.58v-11.98zM153.58 27.68c4.18 0 7.34 3.18 7.34 7.24 0 4.18-3.16 7.44-7.34 7.44s-7.34-3.26-7.34-7.44c0-4.06 3.16-7.24 7.34-7.24zm0 12.32c2.6 0 4.68-2.16 4.68-5.08 0-2.8-2.08-4.88-4.68-4.88s-4.68 2.08-4.68 4.88c0 2.92 2.08 5.08 4.68 5.08zM164.14 27.92h2.58l5.38 8.2c.54.82 1.18 2.2 1.18 2.2h.04s-.14-1.36-.14-2.2v-8.2h2.56v14.2h-2.56l-5.38-8.18c-.54-.82-1.18-2.2-1.18-2.2h-.04s.14 1.36.14 2.2v8.18h-2.58v-14.2zM74.14 90.14h2.41c.78 0 1.23-.45 1.23-1.23v-32.31h6.61l15.06 22.01c1.57 2.3 3.3 5.6 3.3 5.6h.11s-.39-3.3-.39-5.6v-18.2c0-2.63 1.12-3.81 3.81-3.81h7.17v6.22h-2.41c-.78 0-1.23.45-1.23 1.23v32.31h-6.55l-15.12-21.95c-1.57-2.24-3.3-5.6-3.3-5.6h-.11s.39 3.3.39 5.6v18.14c0 2.69-1.12 3.81-3.81 3.81h-7.17v-6.22zM127.73 67.13c8.74 0 15.68 6.22 15.68 14.95 0 8.79-6.94 14.95-15.68 14.95-8.68 0-15.62-6.16-15.62-14.95 0-8.74 6.94-14.95 15.62-14.95zm0 23.85c4.65 0 8.51-3.58 8.51-8.9 0-5.26-3.86-8.9-8.51-8.9-4.59 0-8.46 3.64-8.46 8.9 0 5.32 3.87 8.9 8.46 8.9zM160.38 67.13c8.74 0 15.68 6.22 15.68 14.95 0 8.79-6.94 14.95-15.68 14.95-8.68 0-15.62-6.16-15.62-14.95-.01-8.74 6.94-14.95 15.62-14.95zm0 23.85c4.65 0 8.51-3.58 8.51-8.9 0-5.26-3.86-8.9-8.51-8.9-4.59 0-8.46 3.64-8.46 8.9 0 5.32 3.86 8.9 8.46 8.9zM190.39 67.13c6.22 0 8.23 3.47 8.23 3.47h.11s-.06-.73-.06-1.68v-5.04c0-.84-.45-1.23-1.23-1.23h-2.24v-6.05h6.78c2.63 0 3.81 1.18 3.81 3.81v28.73c0 .78.45 1.23 1.23 1.23h2.18v5.99h-6.55c-2.58 0-3.53-1.23-3.53-2.91v-1.06h-.11s-2.35 4.65-8.9 4.65c-7.73 0-12.71-6.1-12.71-14.95 0-9.08 5.43-14.96 12.99-14.96zm8.46 14.89c0-4.42-2.3-8.79-7.06-8.79-3.92 0-7.17 3.19-7.17 8.85 0 5.43 2.86 8.96 7.06 8.96 3.7 0 7.17-2.69 7.17-9.02zM212.68 63.88c0-.84-.45-1.23-1.23-1.23h-2.24v-6.05h6.78c2.63 0 3.81 1.18 3.81 3.81v28.73c0 .78.45 1.23 1.23 1.23h2.18v5.99h-6.72c-2.69 0-3.81-1.12-3.81-3.81v-28.67zM238.55 67.13c8.18 0 12.66 5.99 12.66 13.55 0 .84-.17 2.63-.17 2.63h-19.71c.56 5.04 4.26 7.67 8.57 7.67 4.59 0 8.01-3.19 8.01-3.19l2.97 4.93s-4.37 4.31-11.48 4.31c-9.46 0-15.34-6.83-15.34-14.95-.01-8.79 5.92-14.95 14.49-14.95zm5.38 11.25c-.11-3.42-2.46-5.77-5.38-5.77-3.64 0-6.22 2.18-7 5.77h12.38zM264.44 68.36h2.35v3.36c0 1.29-.17 2.24-.17 2.24h.11s2.3-6.27 10.08-6.27c7.5 0 12.1 5.99 12.1 14.67 0 8.9-5.21 14.67-12.43 14.67-7.28 0-9.8-6.33-9.8-6.33h-.11s.22 1.01.22 2.46v14.39h-2.35v-39.19zm12.04 26.38c5.49 0 9.97-4.54 9.97-12.38 0-7.56-4.03-12.38-9.74-12.38-5.15 0-9.97 3.64-9.97 12.43 0 6.22 3.47 12.33 9.74 12.33zM296.59 57.16h2.35v32.82c0 3.92 2.02 4.37 3.3 4.37.45 0 .84-.06.84-.06v2.18s-.5.11-1.01.11c-1.62 0-5.49-.62-5.49-5.88v-33.54zM324.81 79.28h1.85v-.95c0-6.22-3.19-8.34-7.67-8.34-4.87 0-8.01 2.69-8.01 2.69l-1.34-1.9s3.36-3.08 9.46-3.08c6.44 0 9.91 3.58 9.91 10.58v18.09h-2.35v-3.7c0-1.51.22-2.52.22-2.52h-.11c.06 0-2.52 6.89-9.8 6.89-4.54 0-9.52-2.52-9.52-8.12 0-9.53 12.38-9.64 17.36-9.64zm-7.73 15.57c6.1 0 9.58-6.33 9.58-11.87v-1.51h-1.79c-4.76 0-14.95 0-14.95 7.28 0 2.96 2.4 6.1 7.16 6.1zM335.06 104.54s1.57 1.34 3.47 1.34c2.69 0 4.37-2.41 5.49-5.04l2.02-4.65-11.59-27.83h2.52l9.24 22.34c.56 1.34 1.01 2.63 1.01 2.63h.11s.39-1.29.95-2.63l9.24-22.34h2.52l-14.39 34.55c-1.23 2.91-3.58 5.21-7.11 5.21-2.69 0-4.54-1.57-4.54-1.57l1.06-2.01z"/></svg><svg height="128" viewBox="0 0 128 128" width="128" x="420" y="10"><circle fill="#F8B51C" cx="64" cy="64" r="59"/><path opacity=".1" fill="#241C1D" d="M64 100.21l-6.73 4.44 20.61 16.69c25.89-6.25 45.12-29.54 45.12-57.34 0-1.02-.03-2.04-.08-3.04l-46.87-35.52-12.05 74.77z"/><path fill="#FDF8B7" d="M66.55 99.43l2.01-25.19-4.62.05h-4.64l2.26 25.16s-5.63 1.93-4.3 5.2c1.33 3.27 6.37 2.08 6.81 0 .46 2.08 5.51 3.21 6.81-.07 1.32-3.28-4.33-5.15-4.33-5.15z"/><path fill="#CE9201" d="M64 22.3c-12.55-.08-19.89 8.42-19.85 22.53.02 6.59 6.29 12.39 9.9 15.98 3.17 3.15 3.96 5.81 4.98 10.56.37 1.72.34 6.63.92 9.5h8.1c.58-2.86.55-7.78.92-9.5 1.02-4.75 3.35-8.36 6.52-11.5 3.61-3.59 8.34-8.44 8.36-15.03.04-14.12-5.97-22.63-19.85-22.54z"/><path opacity=".2" fill="#241C1D" d="M64 22.3c-12.55-.08-19.89 8.42-19.85 22.53.02 6.59 6.29 12.39 9.9 15.98 3.17 3.15 3.96 5.81 4.98 10.56.14.63.22 1.7.3 2.93h-.02l.06.64c.11 1.77.23 3.78.48 5.35l1.72 19.17s-5.63 1.93-4.3 5.2c1.28 3.14 5.97 2.16 6.73.24v-82.6z"/></svg><svg height="128" viewBox="0 0 128 128" width="128" x="420" y="148"><circle fill="#F8B51C" cx="64" cy="64" r="59"/><path opacity=".1" fill="#241C1D" d="M67.77 28.81l-17.6 55.63-11.38 9.7 36.62 27.75c24.9-4.88 44.18-25.43 47.17-50.97l-54.81-42.11z"/><path fill="#FDF8B7" d="M95.34 69.94c1.22-7.7-6.52-28.85-31.64-29.08-25.17.22-31.26 19.69-31.68 29.08h63.32z"/><path fill="#6A3B0D" d="M39.58 63.62c3.78 1.19 5.8-1.73 8.79-3.25 3.55-1.73 4.3-.22 6.73 2.6 2.24 2.38 4.67 2.74 6.92.22 2.09-2.36 1.68-5.85 5.24-6.5 3.18-.44 5.42 3.03 8.04 4.55 3.74 2.17 13.59 3.75 14.09-4.62.12-2.03-.49-3.91-1.6-5.64-4.75-5.64-12.29-10.12-24.11-10.22-15.87.14-24.14 7.93-28.2 16.02-.01 3 .01 5.54 4.1 6.84z"/><path fill="#57AC70" d="M64 68.73h-33.91l8.71 25.41h50.41l8.7-25.41z"/><circle fill="#fff" cx="42" cy="76.01" r="3.97"/><circle fill="#E60624" cx="58.94" cy="83.42" r="3.44"/><circle fill="#331E31" cx="67.2" cy="75.87" r="2.16"/><circle fill="#B2DAB6" cx="84.03" cy="77.88" r="4.18"/><circle fill="#fff" cx="76.21" cy="88.72" r="1.87"/><circle fill="#331E31" cx="43.98" cy="88.13" r="1.98"/><path opacity=".2" fill="#241C1D" d="M64 40.87l-.32-.01c-15.87.14-24.15 7.93-28.21 16.02v.16c-2.1 4.2-3.07 8.47-3.36 11.8h-2.02l8.7 25.41h25.21v-53.38z"/><circle fill="#E73121" cx="64.08" cy="35.76" r="7.7"/><path opacity=".2" fill="#241C1D" d="M64.08 28.06c-.38 0-.75.04-1.11.09 3.72.54 6.59 3.74 6.59 7.61s-2.86 7.07-6.59 7.61c.36.05.73.09 1.11.09 4.25 0 7.7-3.45 7.7-7.7s-3.45-7.7-7.7-7.7z"/><ellipse fill="#fff" cx="60.08" cy="32.85" rx="1.09" ry="1.14"/></svg><svg height="128" viewBox="0 0 128 128" width="128" x="10" y="286"><circle fill="#331E31" cx="64" cy="64" r="59"/><path opacity=".4" fill="#060001" d="M123 68.81l-27.76-24.29-35.55 25.66-21.36 26.84 30.38 25.98c28.95-2.19 52.05-25.26 54.29-54.19z"/><path fill="#FDF8B7" d="M61.56 25.29c-6.57-1.73-13.3-1.33-19.19 2.26-6.34 3.86-10.83 11.05-9.28 18.51.7 3.34 2.47 6.37 3.31 9.68 1.13 4.43-1.24 9.19-2.96 13.16-3.19 7.36-4.33 14.13-.58 21.56 6.3 12.52 25.88 16.64 38.07 11.38 5.86-2.53 9.86-7.31 12.9-12.79 1.04-1.88 1.91-3.85 3.02-5.7 1.71-2.86 4.65-4.44 7.48-5.99 2.73-1.5 5.61-3.05 7.53-5.59 2.46-3.26 2.73-7.14 2.36-11.09-.66-7.01-4.54-12.74-10.05-16.9-4.17-3.15-9.11-4.83-13.9-6.76-2.57-1.03-4.92-3.63-7.14-5.25-3.56-2.57-7.36-5.17-11.57-6.48M45.75 29.7"/><path opacity=".1" fill="#241C1D" d="M63.71 25.91c-.71-.3-1.42-.57-2.15-.8-6.57-1.73-13.3-1.33-19.19 2.26-6.34 3.86-10.83 11.05-9.28 18.51.7 3.34 2.47 6.37 3.31 9.68 1.13 4.43-1.24 9.19-2.96 13.16-3.19 7.36-4.33 14.13-.58 21.56 5.16 10.26 19.23 14.87 30.85 13.32v-77.69z"/><circle fill="#F8B51C" cx="63.71" cy="62.36" r="16.23"/><ellipse fill="#fff" cx="56.72" cy="56.73" rx="3.08" ry="3.02"/><path opacity=".1" fill="#241C1D" d="M63.71 75.98c-8.52 0-15.51-6.57-16.17-14.93-.03.43-.06.86-.06 1.3 0 8.96 7.27 16.23 16.23 16.23s16.23-7.27 16.23-16.23c0-.44-.02-.87-.06-1.3-.66 8.36-7.65 14.93-16.17 14.93z"/></svg><svg height="128" viewBox="0 0 128 128" width="128" x="148" y="286"><ellipse fill="#FDF8B7" cx="63.92" cy="64" rx="58.92" ry="59"/><path opacity=".1" fill="#241C1D" d="M122.96 62.55l-34.8-25.33-46.78 4.03-9.12 51.54 40.11 29.62c28.61-4.04 50.63-28.64 50.63-58.41 0-.48-.03-.96-.04-1.45z"/><path fill="#E60624" d="M30.15 74.84h67.04v7.58h-67.04z"/><path fill="#57AC70" d="M29.14 54.76h69.27v3.81h-69.27z"/><path fill="#6A3B0D" d="M102.28 66.7c0 4.49-3.64 8.14-8.13 8.14h-60.15c-4.49 0-8.12-3.64-8.12-8.14 0-4.49 3.64-8.14 8.12-8.14h60.16c4.48.01 8.12 3.65 8.12 8.14z"/><path opacity=".3" fill="#241C1D" d="M94.16 71.04h-60.16c-3.83 0-7.04-2.66-7.9-6.24-.15.61-.23 1.24-.23 1.9 0 4.49 3.64 8.14 8.13 8.14h60.16c4.49 0 8.13-3.64 8.13-8.14 0-.66-.08-1.29-.23-1.9-.86 3.57-4.07 6.24-7.9 6.24z"/><path fill="#C68C08" d="M102.28 54.76c-6.35-14.84-21.06-25.24-38.2-25.24-17.14 0-31.86 10.4-38.2 25.24h76.4z"/><path opacity=".1" fill="#241C1D" d="M28.04 50.42c-.8 1.4-1.53 2.84-2.17 4.34h76.41c-.64-1.5-1.37-2.94-2.17-4.34h-72.07z"/><path fill="#C2890B" d="M95.9 92.79c2.6-3.1 3.06-6.04 4.61-10.37h-72.72c.95 4.01 1.87 7.27 4.47 10.37h63.64z"/><path fill="#B88210" d="M50.59 38.53l-.08-.02c.15.02.29.07.44.11l.33.11-.11-.05.19.09c.87.42 1.91.25 2.43-.64.46-.79.23-2.01-.64-2.43-.81-.39-1.65-.69-2.55-.72-.97-.03-1.78.83-1.78 1.78-.01.98.8 1.74 1.77 1.77zM64.43 33.44c0 .86-.17-1.07 1.07-1.24-.96.13-1.47 1.35-1.24 2.19.12.44.42.83.81 1.06.45.27.87.25 1.37.18 1.05-.14 1.53-1.26 1.54-2.19.01-.97-.81-1.78-1.77-1.78-.97 0-1.77.81-1.78 1.78zM77.57 40.66l.3.01-.21-.02.09.02c-.19-.05-.35-.15-.49-.29.74.63 1.79.73 2.51 0 .64-.64.74-1.88 0-2.51-.65-.55-1.36-.76-2.2-.76-.97 0-1.77.81-1.77 1.78s.8 1.77 1.77 1.77zM70.12 40.6l-.17.28h-.02l-.26.24c.38-.33.01-.03-.11.03-.85.46-1.11 1.62-.64 2.43.5.86 1.58 1.09 2.43.64.75-.4 1.42-1.07 1.82-1.82.45-.85.22-1.93-.64-2.43-.79-.49-1.96-.23-2.41.63zM42.54 43.03c2.29 0 2.29-3.55 0-3.55s-2.29 3.55 0 3.55zM58.64 43.98c2.29 0 2.29-3.55 0-3.55s-2.29 3.55 0 3.55zM86.79 44.93c2.29 0 2.29-3.55 0-3.55s-2.29 3.55 0 3.55z"/><path opacity=".2" fill="#241C1D" d="M64.15 29.52c-16.24 0-30.29 9.33-37.12 22.92l-.13.26c-.33.67-.66 1.36-.95 2.05h3.27v3.81h4.86c-3.83 0-7.04 2.66-7.89 6.23l-.01.04c-.06.26-.11.52-.14.79l-.04.14c-.03.29-.05.58-.06.88v.060000000000000005c0 4.49 3.64 8.14 8.12 8.14h-3.84v7.58h-2.37c.95 4.01 1.87 7.27 4.47 10.37h31.82v-63.27z"/></svg><svg height="128" viewBox="0 0 128 128" width="128" x="286" y="286"><circle fill="#E60624" cx="64" cy="64" r="59"/><path opacity=".25" fill="#241C1D" d="M64 100.21l.56 6.47 17.13 13.62c23.94-7.51 41.31-29.88 41.31-56.3 0-2.47-.17-4.9-.47-7.3l-21.22-17.71-37.31 61.22z"/><path fill-rule="evenodd" clip-rule="evenodd" fill="#E5A509" d="M64.56 106.67l35.21-64.8s-9.01-11.11-35.21-10.92c-26.2-.19-35.21 10.92-35.21 10.92l35.21 64.8z"/><path fill="#F8B51C" d="M103.58 41.49c-.33-.52-8.5-12.64-38.95-13.38l-.07.01-.07-.01c-30.45.74-38.62 12.86-38.95 13.38-.85 1.32-.47 3.08.85 3.93.48.31 1.01.45 1.54.45.93 0 1.85-.46 2.39-1.3.07-.1 7.27-10.1 34.25-10.78 26.81.67 34.1 10.58 34.27 10.81.54.82 1.45 1.27 2.37 1.27.53 0 1.06-.15 1.54-.45 1.3-.85 1.68-2.61.83-3.93z"/><path fill-rule="evenodd" clip-rule="evenodd" fill="#FDF8B7" d="M72.46 51.68c-4.5 1.19-6.4 4.27-11.37 2.61-3.55-1.19-6.64-4.98-10.66-4.98-6.23 0-9.73 5.11-11.52 10.28l25.58 47.08v.01-.01l26.67-49.07c-7.33-1.2-9.94-8.52-18.7-5.92z"/><circle fill-rule="evenodd" clip-rule="evenodd" fill="#AA1018" cx="55.25" cy="65.14" r="7.36"/><ellipse fill="#fff" cx="53.16" cy="63.07" rx="1.51" ry="1.47"/><ellipse fill="#fff" cx="57.77" cy="63.51" rx="1.05" ry="1.02"/><ellipse fill="#fff" cx="55.25" cy="67.12" rx=".88" ry=".85"/><circle fill="#57AC70" cx="73.48" cy="63.07" r="4.26"/><circle fill="#B2DAB6" cx="67.59" cy="81.3" r="4.46"/><circle fill-rule="evenodd" clip-rule="evenodd" fill="#331E31" cx="69.92" cy="71.95" r="2.13"/><circle fill-rule="evenodd" clip-rule="evenodd" fill="#331E31" cx="83.79" cy="62.49" r="1.3"/><path fill-rule="evenodd" clip-rule="evenodd" fill="#E60624" d="M71.21 90.46c-1.89 0-3.42 1.53-3.42 3.41 0 1.43.89 2.66 2.14 3.16l3.23-5.95c-.55-.38-1.22-.62-1.95-.62z"/><path fill-rule="evenodd" clip-rule="evenodd" fill="#331E31" d="M55.25 83.4c0-2.33-1.89-4.21-4.21-4.21-.55 0-1.07.11-1.56.31l3.99 7.34c1.07-.77 1.78-2.02 1.78-3.44z"/><ellipse fill-rule="evenodd" clip-rule="evenodd" fill="#331E31" cx="49.27" cy="54.05" rx="1.38" ry="1.42"/><path opacity=".2" fill-rule="evenodd" clip-rule="evenodd" fill="#241C1D" d="M64.56 106.61v-78.56l-.07-.01c-30.45.74-38.62 12.87-38.95 13.38-.85 1.32-.47 3.08.85 3.93.48.31 1.01.45 1.54.45.93 0 1.85-.46 2.39-1.3l.3-.37 8.32 15.31-.03.07 10.77 19.83-.2.07 3.99 7.34.17-.14 10.86 19.98v.01-.01l.03-.06.03.08z"/></svg></svg>